<svg width="1791.9999999999998" height="1791.9999999999998" xmlns="http://www.w3.org/2000/svg">

 <g>
  <title>background</title>
  <rect fill="none" id="canvas_background" height="402" width="582" y="-1" x="-1"/>
 </g>
 <g>
  <title>Layer 1</title>
  <path fill="#ffffff" id="svg_1" d="m1045,905q0,-26 -6,-64l-362,0l0,132l217,0q-3,24 -16.5,50t-37.5,53t-66.5,44.5t-96.5,17.5q-99,0 -169,-71t-70,-171t70,-171t169,-71q92,0 153,59l104,-101q-108,-100 -257,-100q-160,0 -272,112.5t-112,271.5t112,271.5t272,112.5q165,0 266.5,-105t101.5,-270zm345,46l109,0l0,-110l-109,0l0,-110l-110,0l0,110l-110,0l0,110l110,0l0,110l110,0l0,-110zm274,-535l0,960q0,119 -84.5,203.5t-203.5,84.5l-960,0q-119,0 -203.5,-84.5t-84.5,-203.5l0,-960q0,-119 84.5,-203.5t203.5,-84.5l960,0q119,0 203.5,84.5t84.5,203.5z"/>
 </g>
</svg>