<svg width="500.00000000000006" height="500.00000000000006" xmlns="http://www.w3.org/2000/svg">

 <g>
  <title>background</title>
  <rect fill="none" id="canvas_background" height="402" width="582" y="-1" x="-1"/>
 </g>
 <g>
  <title>Layer 1</title>
  <path id="svg_1" fill-rule="evenodd" fill="#ffffff" d="m31.949,431.711c0,20.078 16.264,36.34 36.34,36.34l363.421,0c20.078,0 36.34,-16.262 36.34,-36.34l0,-363.421c0,-20.077 -16.262,-36.34 -36.34,-36.34l-363.42,0c-20.077,0 -36.34,16.264 -36.34,36.34l0,363.421l-0.001,0zm227.137,-18.173l0,-145.366l-36.342,0l0,-54.514l36.342,0c0,-93.671 3.993,-99.939 118.112,-99.939l0,54.513c-60.149,0 -54.514,3.362 -54.514,45.427l54.514,0l0,54.514l-54.514,0l0,145.366l-63.598,0l0,-0.001z" clip-rule="evenodd"/>
 </g>
</svg>